<svg width="181" height="36" viewBox="0 0 181 36" fill="#fff" xmlns="http://www.w3.org/2000/svg">
<path d="M0.196 19.692V8.172H4.156V18.9C4.156 22.284 5.356 23.976 7.756 23.976C8.884 23.976 9.952 23.628 10.96 22.932C11.968 22.212 12.748 21.204 13.3 19.908V8.172H17.26V22.536C17.26 22.992 17.344 23.316 17.512 23.508C17.68 23.7 17.956 23.808 18.34 23.832V27C17.932 27.072 17.596 27.12 17.332 27.144C17.068 27.168 16.816 27.18 16.576 27.18C15.856 27.18 15.256 26.988 14.776 26.604C14.296 26.22 14.02 25.704 13.948 25.056L13.876 23.184C13.036 24.552 11.944 25.596 10.6 26.316C9.256 27.012 7.78 27.36 6.172 27.36C4.204 27.36 2.716 26.712 1.708 25.416C0.7 24.12 0.196 22.212 0.196 19.692ZM32.2135 27.36C30.6535 27.36 29.2495 26.952 28.0015 26.136C26.7775 25.32 25.8055 24.312 25.0855 23.112V34.668H22.6375V8.244H24.8335V11.88C25.5775 10.704 26.5615 9.756 27.7855 9.036C29.0335 8.292 30.3775 7.92 31.8175 7.92C33.1135 7.92 34.3015 8.196 35.3815 8.748C36.4615 9.276 37.3975 9.996 38.1895 10.908C39.0055 11.82 39.6295 12.864 40.0615 14.04C40.4935 15.192 40.7095 16.392 40.7095 17.64C40.7095 19.392 40.3495 21.012 39.6295 22.5C38.9335 23.964 37.9375 25.14 36.6415 26.028C35.3695 26.916 33.8935 27.36 32.2135 27.36ZM31.5295 25.2C32.8975 25.2 34.0735 24.84 35.0575 24.12C36.0655 23.376 36.8455 22.428 37.3975 21.276C37.9495 20.124 38.2255 18.912 38.2255 17.64C38.2255 16.296 37.9135 15.048 37.2895 13.896C36.6655 12.744 35.8255 11.82 34.7695 11.124C33.7375 10.428 32.5615 10.08 31.2415 10.08C30.4255 10.08 29.5615 10.296 28.6495 10.728C27.7615 11.136 26.9695 11.7 26.2735 12.42C25.6015 13.116 25.2055 13.884 25.0855 14.724V20.484C25.6375 21.804 26.5015 22.92 27.6775 23.832C28.8535 24.744 30.1375 25.2 31.5295 25.2ZM43.5963 17.676C43.5963 15.9 43.9563 14.28 44.6763 12.816C45.4203 11.328 46.4403 10.14 47.7363 9.252C49.0323 8.364 50.5083 7.92 52.1643 7.92C53.7243 7.92 55.1163 8.34 56.3403 9.18C57.5883 9.996 58.5603 10.992 59.2563 12.168V0.719999H61.7043V24.048C61.7043 24.696 61.9923 25.032 62.5683 25.056V27C62.0883 27.072 61.7163 27.096 61.4523 27.072C60.9243 27.048 60.4683 26.856 60.0843 26.496C59.7243 26.112 59.5443 25.68 59.5443 25.2V23.364C58.8003 24.588 57.7923 25.56 56.5203 26.28C55.2483 27 53.9283 27.36 52.5603 27.36C51.2643 27.36 50.0643 27.096 48.9603 26.568C47.8563 26.04 46.8963 25.32 46.0803 24.408C45.2883 23.496 44.6763 22.464 44.2443 21.312C43.8123 20.136 43.5963 18.924 43.5963 17.676ZM59.2563 20.556V14.76C58.9443 13.896 58.4403 13.116 57.7443 12.42C57.0483 11.7 56.2563 11.136 55.3683 10.728C54.5043 10.296 53.6403 10.08 52.7763 10.08C51.4323 10.08 50.2563 10.452 49.2483 11.196C48.2643 11.916 47.4963 12.864 46.9443 14.04C46.3923 15.192 46.1163 16.404 46.1163 17.676C46.1163 19.02 46.4163 20.268 47.0163 21.42C47.6403 22.572 48.4803 23.496 49.5363 24.192C50.5923 24.864 51.7803 25.2 53.1003 25.2C53.9163 25.2 54.7683 24.996 55.6563 24.588C56.5683 24.156 57.3603 23.592 58.0323 22.896C58.7283 22.2 59.1363 21.42 59.2563 20.556ZM65.7388 21.6C65.7388 20.448 66.0748 19.452 66.7468 18.612C67.4188 17.748 68.3428 17.076 69.5188 16.596C70.7188 16.116 72.0988 15.876 73.6588 15.876C74.5708 15.876 75.5188 15.96 76.5028 16.128C77.4868 16.272 78.3628 16.476 79.1308 16.74V15.156C79.1308 13.572 78.6628 12.312 77.7268 11.376C76.7908 10.44 75.4948 9.972 73.8388 9.972C72.8548 9.972 71.8708 10.164 70.8868 10.548C69.9028 10.908 68.8828 11.448 67.8268 12.168L66.8908 10.44C68.1148 9.6 69.3148 8.976 70.4908 8.568C71.6668 8.136 72.8668 7.92 74.0908 7.92C76.3948 7.92 78.2188 8.58 79.5628 9.9C80.9068 11.22 81.5788 13.044 81.5788 15.372V24.048C81.5788 24.696 81.8788 25.032 82.4788 25.056V27C81.9508 27.072 81.5788 27.096 81.3628 27.072C80.7628 27.048 80.3068 26.856 79.9948 26.496C79.6828 26.136 79.5148 25.752 79.4908 25.344L79.4548 23.976C78.6148 25.056 77.5228 25.896 76.1788 26.496C74.8348 27.072 73.4668 27.36 72.0748 27.36C70.8508 27.36 69.7588 27.108 68.7988 26.604C67.8388 26.076 67.0828 25.38 66.5308 24.516C66.0028 23.628 65.7388 22.656 65.7388 21.6ZM78.3028 23.04C78.8548 22.392 79.1308 21.792 79.1308 21.24V18.504C77.4748 17.856 75.7468 17.532 73.9468 17.532C72.1948 17.532 70.7788 17.88 69.6988 18.576C68.6188 19.272 68.0788 20.22 68.0788 21.42C68.0788 22.452 68.4748 23.388 69.2668 24.228C70.0828 25.068 71.2108 25.488 72.6508 25.488C73.8268 25.488 74.9188 25.26 75.9268 24.804C76.9588 24.348 77.7508 23.76 78.3028 23.04ZM87.3855 32.76C87.7215 32.784 88.0455 32.796 88.3575 32.796C88.6695 32.82 88.8975 32.808 89.0415 32.76C89.3295 32.736 89.5935 32.568 89.8335 32.256C90.0975 31.968 90.4095 31.416 90.7695 30.6C91.1535 29.808 91.6695 28.608 92.3175 27L84.1455 8.244H86.7375L93.6135 24.48L99.9495 8.244H102.397L92.6775 32.436C92.4135 33.132 91.9695 33.732 91.3455 34.236C90.7215 34.74 89.8935 35.004 88.8615 35.028C88.6455 35.052 88.4175 35.052 88.1775 35.028C87.9375 35.028 87.6735 35.004 87.3855 34.956V32.76ZM110.749 10.584V27H105.781V1.44H109.741L122.953 18.288V1.476H127.921V27H123.781L110.749 10.584ZM141.374 27.36C139.574 27.36 137.966 26.916 136.55 26.028C135.134 25.14 134.018 23.952 133.202 22.464C132.386 20.976 131.978 19.344 131.978 17.568C131.978 15.816 132.374 14.208 133.166 12.744C133.982 11.28 135.098 10.116 136.514 9.252C137.93 8.364 139.538 7.92 141.338 7.92C143.186 7.92 144.806 8.364 146.198 9.252C147.59 10.14 148.67 11.316 149.438 12.78C150.23 14.22 150.626 15.804 150.626 17.532C150.626 17.916 150.614 18.24 150.59 18.504H134.534C134.654 19.848 135.038 21.048 135.686 22.104C136.334 23.136 137.162 23.964 138.17 24.588C139.178 25.188 140.282 25.488 141.482 25.488C142.706 25.488 143.858 25.176 144.938 24.552C146.018 23.928 146.786 23.112 147.242 22.104L149.366 22.68C148.982 23.592 148.382 24.408 147.566 25.128C146.774 25.824 145.85 26.376 144.794 26.784C143.738 27.168 142.598 27.36 141.374 27.36ZM134.462 16.74H148.322C148.226 15.396 147.854 14.208 147.206 13.176C146.558 12.12 145.73 11.304 144.722 10.728C143.714 10.128 142.598 9.828 141.374 9.828C140.15 9.828 139.034 10.128 138.026 10.728C137.018 11.304 136.19 12.12 135.542 13.176C134.918 14.208 134.558 15.396 134.462 16.74ZM154.276 8.244L159.784 15.588L160.072 16.128L160.36 15.588L165.832 8.244H168.604L161.476 17.676L168.604 27H165.832L160.36 19.692L160.072 19.188L159.784 19.692L154.312 27H151.54L158.632 17.676L151.54 8.244H154.276ZM180.841 26.1C180.553 26.22 180.025 26.436 179.257 26.748C178.489 27.06 177.601 27.216 176.593 27.216C175.537 27.216 174.613 26.916 173.821 26.316C173.029 25.716 172.633 24.816 172.633 23.616V10.188H170.041V8.244H172.633V1.908H175.081V8.244H179.401V10.188H175.081V22.932C175.129 23.628 175.369 24.144 175.801 24.48C176.257 24.792 176.773 24.948 177.349 24.948C178.021 24.948 178.621 24.84 179.149 24.624C179.701 24.384 180.049 24.216 180.193 24.12L180.841 26.1Z" fill="white"/>
</svg>
